<svg width="98" height="24" viewBox="0 0 98 24" fill="none" xmlns="http://www.w3.org/2000/svg">
<g clip-path="url(#clip0_22_20)">
<path d="M39.2046 18.3764C41.682 18.2083 42.7838 16.841 42.902 15.311C42.9597 14.5641 42.747 13.6448 41.9286 12.96C41.18 12.3338 39.9832 12.0144 38.9905 11.762C37.0509 11.2691 36.7348 10.9317 36.7505 10.0172C36.7664 9.10274 37.7237 8.49809 38.866 8.56652C40.0084 8.63506 40.7372 9.20739 41.0408 10.3944C41.0408 10.3944 42.8093 10.0906 42.8083 10.0687C42.7465 8.71312 41.1756 7.02869 39.0779 7.02869C36.6683 7.02869 34.9026 8.25788 34.9204 10.2007C34.9382 12.1435 36.277 12.7925 38.507 13.3919C39.371 13.6241 40.0408 13.8427 40.4492 14.1176C41.0947 14.5521 41.1219 15.1008 41.1015 15.4033C41.0683 15.8974 40.4537 16.8032 39.2304 16.8082C38.6394 16.8106 37.8066 16.8747 37.1248 16.3382C36.5415 15.8792 36.4073 14.9962 36.4073 14.9962L34.6405 15.2845C34.6405 15.2845 34.6617 16.1096 35.5545 17.2091C36.2837 18.107 37.914 18.4641 39.2046 18.3764Z" fill="black"/>
<path d="M48.0894 18.3839C50.4039 18.4242 52.2227 16.7705 52.3121 14.3009C52.4017 11.8312 50.6306 10.0103 48.0615 10.0145C45.6652 10.0184 43.8586 11.7597 43.8339 14.2405C43.8092 16.7214 45.7194 18.3427 48.0894 18.3839ZM48.1009 16.8477C46.724 16.8338 45.5274 15.7584 45.5384 14.2108C45.5494 12.6633 46.6779 11.5204 48.0597 11.5174C49.507 11.514 50.6697 12.6147 50.6677 14.1932C50.6656 15.7716 49.478 16.8615 48.1009 16.8477Z" fill="black"/>
<path d="M77.5878 18.3761C79.9024 18.4164 81.721 16.7627 81.8106 14.2931C81.9001 11.8234 80.1291 10.0025 77.5599 10.0067C75.1635 10.0106 73.3569 11.7519 73.3323 14.2327C73.3076 16.7136 75.2179 18.3349 77.5878 18.3761ZM77.5994 16.8399C76.2224 16.826 75.0258 15.7506 75.0368 14.203C75.0477 12.6555 76.1762 11.5126 77.558 11.5096C79.0053 11.5064 80.1681 12.6069 80.1661 14.1854C80.1641 15.7638 78.9763 16.8537 77.5994 16.8399Z" fill="black"/>
<path d="M53.5237 18.2648H55.2302V6.52954H53.5237V18.2648Z" fill="black"/>
<path d="M58.8907 18.3813C59.4822 18.3813 60.4251 18.0186 60.935 17.415C61.3631 16.9083 61.6237 16.246 61.6237 16.246L61.6017 18.2642H63.3006V12.5145C63.2482 11.1724 62.0158 9.96674 60.0039 9.96674C57.9763 9.96674 56.6018 11.0529 56.4844 12.4883L58.1211 12.8506C58.2636 11.897 59.1181 11.4053 60.0967 11.4053C61.1458 11.4053 61.8558 12.3266 61.6233 12.9619C61.3909 13.5974 60.5814 13.4508 59.2985 13.6034C58.0155 13.756 56.3808 14.2825 56.3016 15.893C56.2225 17.5034 57.2466 18.3813 58.8907 18.3813ZM57.8853 15.9641C57.8951 15.4406 58.3608 15.008 59.1865 14.8772C59.9828 14.7509 60.6871 14.8099 61.1196 14.6564C61.4176 14.5507 61.564 14.4519 61.5986 14.3379C61.6027 14.3685 61.6337 14.7897 61.5498 15.2718C61.511 15.4948 61.421 15.6926 61.2835 15.901C60.8623 16.5392 60.0805 17.0471 59.1738 17.0471C58.2656 17.0471 57.8755 16.4874 57.8853 15.9641Z" fill="black"/>
<path d="M64.7321 18.2855H66.4384V13.4698C66.4384 12.8278 66.8865 12.1246 67.5928 11.7645C68.213 11.4481 68.8723 11.5202 69.5899 11.695C69.5734 10.3739 69.5868 10.0796 69.5868 10.0796C69.5868 10.0796 68.4552 9.79208 67.626 10.3044C66.7968 10.8166 66.6074 11.4509 66.4409 12.0329C66.4317 11.298 66.4384 10.2055 66.4384 10.2055H64.7321V18.2855Z" fill="black"/>
<path d="M71.2846 8.88435C71.8305 8.88435 72.2534 8.44835 72.2534 7.91894C72.2534 7.38175 71.8305 6.94586 71.2846 6.94586C70.7465 6.94586 70.3158 7.38175 70.3158 7.91894C70.3158 8.44835 70.7465 8.88435 71.2846 8.88435ZM70.4543 18.3355H72.115V10.1455H70.4543V18.3355Z" fill="black"/>
<path d="M86.6336 18.4128C88.0385 18.4402 90.189 17.2645 90.1858 15.1826C90.1825 13.1008 90.2171 10.0801 90.2171 10.0801L88.4813 10.0855L88.5429 14.8576C88.5129 15.9946 87.8541 16.8645 86.5867 16.846C85.3193 16.8275 84.5369 16.1922 84.5369 14.9313L84.5721 10.0855H82.7905L82.905 15.2643C82.905 17.1836 84.7289 18.3756 86.6336 18.4128Z" fill="black"/>
<path d="M94.924 18.3824C96.9423 18.2597 97.8839 17.223 97.9803 16.1065C98.0274 15.5614 97.9421 14.8129 97.2753 14.3132C96.6655 13.8562 95.655 13.688 94.8463 13.5039C93.266 13.1441 93.0333 12.7617 93.0979 12.1951C93.1625 11.6285 93.9116 11.2881 94.714 11.3047C95.5163 11.3215 95.9862 11.7337 96.2334 12.6C96.2334 12.6 97.8804 12.3276 97.8794 12.3116C97.7983 11.0219 96.4006 9.99463 94.6916 9.99463C92.7285 9.99463 91.4191 10.9979 91.4335 12.4158C91.448 13.8336 92.3305 14.4473 94.1764 14.7374C95.2418 14.9047 96.2247 15.1703 96.3186 15.7683C96.4124 16.3663 95.8894 16.9437 95.0023 17.0356C94.5234 17.0851 93.8847 17.0933 93.4317 16.823C92.9326 16.5253 92.7546 15.7704 92.7546 15.7704L91.153 16.0951C91.153 16.0951 91.2228 16.728 91.9502 17.5304C92.5442 18.1857 93.8725 18.4464 94.924 18.3824Z" fill="black"/>
<path d="M23.7937 16.1875C24.7218 14.9882 26.1384 14.5341 26.9578 15.1732C27.7772 15.8122 27.6891 17.3025 26.761 18.5017C25.833 19.7009 24.4164 20.155 23.5969 19.516C22.7775 18.8769 22.8656 17.3867 23.7937 16.1875Z" fill="url(#paint0_radial_22_20)"/>
<path d="M25.4248 10.4763C25.3173 8.96144 26.0229 7.6768 27.0008 7.60685C27.9787 7.53701 28.8585 8.70825 28.966 10.223C29.0736 11.7377 28.368 13.0224 27.39 13.0923C26.4122 13.1623 25.5323 11.991 25.4248 10.4763Z" fill="url(#paint1_radial_22_20)"/>
<path d="M21.3754 5.33975C20.8886 4.53813 20.2185 2.73986 21.5775 2.22916C22.9364 1.71856 24.2335 2.89532 24.6335 4.00051C25.0336 5.10559 24.8938 6.6031 24.7123 7.56916C24.531 8.5351 23.6165 8.77337 22.8795 7.63197C22.3237 6.77089 21.862 6.14137 21.3754 5.33975Z" fill="url(#paint2_radial_22_20)"/>
<path d="M12.1757 1.73615C12.0542 0.277777 13.4094 0.00382899 14.2105 4.5215e-05C15.0116 -0.00384668 15.9201 0.242531 16.8255 1.11831C18.3258 2.56966 19.7693 7.88177 18.7738 7.97929C17.7782 8.07669 12.2973 3.19453 12.1757 1.73615Z" fill="url(#paint3_radial_22_20)"/>
<path d="M5.87887 7.31875C4.06143 6.7274 3.51719 5.2688 4.09421 4.05486C4.67121 2.84091 6.49086 2.3781 7.76113 2.87583C10.0493 3.77237 17.0832 8.65658 16.4511 9.63669C15.8189 10.6169 8.57313 8.1954 5.87887 7.31875Z" fill="url(#paint4_radial_22_20)"/>
<path d="M3.20934 10.2059C5.59417 10.2109 15.7421 11.009 15.6904 12.5638C15.6388 14.1187 3.61371 15.1688 3.05331 15.1761C1.14028 15.2011 0.054786 14.3537 0.00222142 12.8759C-0.0503432 11.3982 0.824495 10.2009 3.20934 10.2059Z" fill="url(#paint5_radial_22_20)"/>
<path d="M14.8703 23.3196C14.0623 22.5145 14.1279 21.421 15.2868 20.2486C15.8488 19.6801 18.5783 17.0485 19.7137 17.7214C20.849 18.3941 18.7948 22.2017 18.3774 22.8044C17.4025 24.2123 15.6784 24.1245 14.8703 23.3196Z" fill="url(#paint6_radial_22_20)"/>
<path d="M5.18382 20.853C4.63763 19.8854 4.84475 18.4745 6.04481 17.8846C6.66335 17.5806 15.203 14.1246 16.1204 15.5792C17.0378 17.0338 11.0261 20.7974 9.11615 21.6026C7.20623 22.4078 5.72999 21.8206 5.18382 20.853Z" fill="url(#paint7_radial_22_20)"/>
</g>
<defs>
<radialGradient id="paint0_radial_22_20" cx="0" cy="0" r="1" gradientTransform="matrix(2.99953 -3.90329 3.61873 1.95055 24.5291 18.1341)" gradientUnits="userSpaceOnUse">
<stop/>
<stop offset="0.40625"/>
<stop offset="0.741667" stop-opacity="0"/>
<stop offset="1" stop-opacity="0"/>
</radialGradient>
<radialGradient id="paint1_radial_22_20" cx="0" cy="0" r="1" gradientTransform="matrix(0.486585 5.79113 -3.84067 0.361883 26.9555 7.94815)" gradientUnits="userSpaceOnUse">
<stop/>
<stop offset="0.554167"/>
<stop offset="0.875" stop-opacity="0"/>
<stop offset="1" stop-opacity="0"/>
</radialGradient>
<radialGradient id="paint2_radial_22_20" cx="0" cy="0" r="1" gradientTransform="matrix(3.31241 7.81419 -5.9399 1.27854 22.2925 1.70461)" gradientUnits="userSpaceOnUse">
<stop/>
<stop offset="0.46875"/>
<stop offset="0.802083" stop-opacity="0"/>
<stop offset="1" stop-opacity="0"/>
</radialGradient>
<radialGradient id="paint3_radial_22_20" cx="0" cy="0" r="1" gradientTransform="matrix(1.65153 10.2435 -10.2041 1.65791 15.194 -0.50536)" gradientUnits="userSpaceOnUse">
<stop/>
<stop offset="0.379167"/>
<stop offset="0.61875" stop-opacity="0.321007"/>
<stop offset="0.802083" stop-opacity="0"/>
<stop offset="1" stop-opacity="0"/>
</radialGradient>
<radialGradient id="paint4_radial_22_20" cx="0" cy="0" r="1" gradientTransform="matrix(18.399 5.06679 -4.7981 15.7554 1.92422 3.30048)" gradientUnits="userSpaceOnUse">
<stop/>
<stop offset="0.379167"/>
<stop offset="0.61875" stop-opacity="0.321007"/>
<stop offset="0.802083" stop-opacity="0"/>
<stop offset="1" stop-opacity="0"/>
</radialGradient>
<radialGradient id="paint5_radial_22_20" cx="0" cy="0" r="1" gradientTransform="matrix(19.391 -5.63199 5.94193 17.7972 -0.758561 14.2774)" gradientUnits="userSpaceOnUse">
<stop/>
<stop offset="0.379167"/>
<stop offset="0.61875" stop-opacity="0.321007"/>
<stop offset="0.802083" stop-opacity="0"/>
<stop offset="1" stop-opacity="0"/>
</radialGradient>
<radialGradient id="paint6_radial_22_20" cx="0" cy="0" r="1" gradientTransform="matrix(2.55735 -8.44949 8.8642 0.857854 15.8924 23.9878)" gradientUnits="userSpaceOnUse">
<stop/>
<stop offset="0.379167"/>
<stop offset="0.61875" stop-opacity="0.321007"/>
<stop offset="0.802083" stop-opacity="0"/>
<stop offset="1" stop-opacity="0"/>
</radialGradient>
<radialGradient id="paint7_radial_22_20" cx="0" cy="0" r="1" gradientTransform="matrix(7.27301 -9.57652 11.7696 4.6608 6.78741 21.59)" gradientUnits="userSpaceOnUse">
<stop/>
<stop offset="0.379167"/>
<stop offset="0.604167" stop-opacity="0.40681"/>
<stop offset="0.797917" stop-opacity="0"/>
<stop offset="1" stop-opacity="0"/>
</radialGradient>
<clipPath id="clip0_22_20">
<rect width="98" height="24" fill="white"/>
</clipPath>
</defs>
</svg>
